<svg width="24" height="24" viewBox="0 0 24 24" fill="none" xmlns="http://www.w3.org/2000/svg">
<path fill-rule="evenodd" clip-rule="evenodd" d="M10 2.25C10 2.3875 9.55 2.5 9 2.5C8.45 2.5 8 2.6125 8 2.75C8 2.8875 7.79975 3 7.55525 3C7.3105 3 6.94825 3.225 6.75 3.5C6.55175 3.775 6.242 4 6.0615 4C5.635 4 4 5.635 4 6.0615C4 6.242 3.775 6.55175 3.5 6.75C3.225 6.94825 3 7.3105 3 7.55525C3 7.79975 2.8875 8 2.75 8C2.6125 8 2.5 8.45 2.5 9C2.5 9.55 2.3875 10 2.25 10C2.10425 10 2 10.8333 2 12C2 13.1667 2.10425 14 2.25 14C2.3875 14 2.5 14.45 2.5 15C2.5 15.55 2.6125 16 2.75 16C2.8875 16 3 16.2002 3 16.4447C3 16.6895 3.225 17.0518 3.5 17.25C3.775 17.4482 4 17.758 4 17.9385C4 18.365 5.635 20 6.0615 20C6.242 20 6.55175 20.225 6.75 20.5C6.94825 20.775 7.3105 21 7.55525 21C7.79975 21 8 21.1125 8 21.25C8 21.3875 8.45 21.5 9 21.5C9.55 21.5 10 21.6125 10 21.75C10 21.8958 10.8333 22 12 22C13.1667 22 14 21.8958 14 21.75C14 21.6125 14.45 21.5 15 21.5C15.55 21.5 16 21.3875 16 21.25C16 21.1125 16.2002 21 16.4447 21C16.6895 21 17.0518 20.775 17.25 20.5C17.4482 20.225 17.7655 20 17.955 20C18.1443 20 18.6147 19.6625 19 19.25C19.3853 18.8375 19.768 18.5 19.8503 18.5C19.9328 18.5 20 19.2875 20 20.25V22H21H22V16C22 12.1667 21.9097 10 21.75 10C21.6125 10 21.5 9.55 21.5 9C21.5 8.45 21.3875 8 21.25 8C21.1125 8 21 7.79975 21 7.55525C21 7.3105 20.775 6.94825 20.5 6.75C20.225 6.55175 20 6.242 20 6.0615C20 5.635 18.365 4 17.9385 4C17.758 4 17.4482 3.775 17.25 3.5C17.0518 3.225 16.6895 3 16.4447 3C16.2002 3 16 2.8875 16 2.75C16 2.6125 15.55 2.5 15 2.5C14.45 2.5 14 2.3875 14 2.25C14 2.10425 13.1667 2 12 2C10.8333 2 10 2.10425 10 2.25ZM13.3862 5.61375C14.1982 6.4255 14.1982 7.5745 13.3862 8.38625C11.5652 10.2075 8.802 7.51175 10.5625 5.63125C11.331 4.81075 12.5755 4.80275 13.3862 5.61375ZM8.38625 10.6138C9.19825 11.4255 9.19825 12.5745 8.38625 13.3862C6.56525 15.2075 3.802 12.5118 5.5625 10.6313C6.331 9.81075 7.5755 9.80275 8.38625 10.6138ZM18.3862 10.6138C19.1982 11.4255 19.1982 12.5745 18.3862 13.3862C16.5652 15.2075 13.802 12.5118 15.5625 10.6313C16.331 9.81075 17.5755 9.80275 18.3862 10.6138ZM12.6427 11.3573C12.8392 11.5535 13 11.8427 13 12C13 12.369 12.369 13 12 13C11.6345 13 11 12.3702 11 12.0072C11 11.611 11.5652 11.0207 11.9552 11.0095C12.137 11.0042 12.4465 11.1608 12.6427 11.3573ZM13.3862 15.6138C14.1982 16.4255 14.1982 17.5745 13.3862 18.3862C11.5652 20.2075 8.802 17.5118 10.5625 15.6313C11.331 14.8108 12.5755 14.8028 13.3862 15.6138Z" fill="#808080"/>
</svg>
