<svg width="24" height="24" viewBox="0 0 24 24" fill="none" xmlns="http://www.w3.org/2000/svg">
<path fill-rule="evenodd" clip-rule="evenodd" d="M9.5 2.25C9.5 2.3875 9.1625 2.5 8.75 2.5C8.3375 2.5 8 2.6125 8 2.75C8 2.8875 7.79975 3 7.55525 3C7.3105 3 6.94825 3.225 6.75 3.5C6.55175 3.775 6.23775 4 6.052 4C5.61675 4 5 4.61675 5 5.052C5 5.23775 4.775 5.55175 4.5 5.75C4.225 5.94825 4 6.3105 4 6.55525C4 6.79975 3.8875 7 3.75 7C3.6125 7 3.5 7.3375 3.5 7.75C3.5 8.1625 3.3875 8.5 3.25 8.5C3.10725 8.5 3 9.25 3 10.25C3 11.25 3.10725 12 3.25 12C3.3875 12 3.5 12.225 3.5 12.5C3.5 12.775 3.6125 13 3.75 13C3.8875 13 4 13.2002 4 13.4447C4 13.6895 4.225 14.0518 4.5 14.25C4.775 14.4482 5 14.763 5 14.9497C5 15.1365 5.45 15.7215 6 16.25C6.55 16.7785 7 17.3635 7 17.5502C7 17.737 7.225 18.0518 7.5 18.25C7.775 18.4482 8 18.8105 8 19.0553C8 19.2997 8.1125 19.5 8.25 19.5C8.3875 19.5 8.5 19.6737 8.5 19.8862C8.5 20.3865 9.6135 21.5 10.1138 21.5C10.3263 21.5 10.5 21.6125 10.5 21.75C10.5 21.889 11.1667 22 12 22C12.8333 22 13.5 21.889 13.5 21.75C13.5 21.6125 13.6737 21.5 13.8862 21.5C14.3865 21.5 15.5 20.3865 15.5 19.8862C15.5 19.6737 15.6125 19.5 15.75 19.5C15.8875 19.5 16 19.2997 16 19.0553C16 18.8105 16.225 18.4482 16.5 18.25C16.775 18.0518 17 17.737 17 17.5502C17 17.3635 17.45 16.7785 18 16.25C18.55 15.7215 19 15.1365 19 14.9497C19 14.763 19.225 14.4482 19.5 14.25C19.775 14.0518 20 13.6895 20 13.4447C20 13.2002 20.1125 13 20.25 13C20.3875 13 20.5 12.775 20.5 12.5C20.5 12.225 20.6125 12 20.75 12C20.8927 12 21 11.25 21 10.25C21 9.25 20.8927 8.5 20.75 8.5C20.6125 8.5 20.5 8.1625 20.5 7.75C20.5 7.3375 20.3875 7 20.25 7C20.1125 7 20 6.82925 20 6.62025C20 6.126 16.874 3 16.3797 3C16.1707 3 16 2.8875 16 2.75C16 2.6125 15.55 2.5 15 2.5C14.45 2.5 14 2.3875 14 2.25C14 2.10175 13.0833 2 11.75 2C10.4167 2 9.5 2.10175 9.5 2.25ZM8.5 9.25C8.5 9.3875 8.6725 9.5 8.88325 9.5C9.09425 9.5 9.65675 9.89 10.1333 10.3667C10.8408 11.074 11 11.422 11 12.2595C11 12.824 10.8392 13.4465 10.6427 13.6427C10.239 14.0468 8.5 14.1335 8.5 13.75C8.5 13.6125 8.32625 13.5 8.11375 13.5C7.6135 13.5 6.5 12.3865 6.5 11.8862C6.5 11.6737 6.3875 11.5 6.25 11.5C5.891 11.5 5.941 9.79575 6.3125 9.374C6.667 8.97125 8.5 8.8675 8.5 9.25ZM17.6427 9.35725C18.0468 9.761 18.1335 11.5 17.75 11.5C17.6125 11.5 17.5 11.6737 17.5 11.8862C17.5 12.3865 16.3865 13.5 15.8862 13.5C15.6737 13.5 15.5 13.6125 15.5 13.75C15.5 14.1335 13.761 14.0468 13.3573 13.6427C12.9532 13.239 12.8665 11.5 13.25 11.5C13.3875 11.5 13.5 11.328 13.5 11.118C13.5 10.9078 13.8655 10.353 14.3125 9.885C14.9827 9.18325 15.314 9.03125 16.2052 9.01725C16.8292 9.00725 17.4365 9.15075 17.6427 9.35725ZM11.5 16.25C11.5 16.8333 11.389 17 11 17C10.435 17 10.3372 16.4137 10.8125 15.874C11.2978 15.3228 11.5 15.4335 11.5 16.25ZM13.1427 15.8573C13.6632 16.3775 13.5852 17 13 17C12.611 17 12.5 16.8333 12.5 16.25C12.5 15.4113 12.6222 15.3365 13.1427 15.8573Z" fill="#808080"/>
</svg>
