<svg width="24" height="24" viewBox="0 0 24 24" fill="none" xmlns="http://www.w3.org/2000/svg">
<path fill-rule="evenodd" clip-rule="evenodd" d="M15.8612 3.02314V4.04627H17.1401C17.8435 4.04627 18.419 4.10766 18.419 4.1826C18.419 4.2578 18.02 4.71822 17.5322 5.20574C16.6782 6.06006 15.8612 6.36853 15.8612 5.83676C15.8612 5.69608 15.631 5.58097 15.3496 5.58097C15.0683 5.58097 14.8381 5.46587 14.8381 5.32519C14.8381 5.18298 14.1559 5.06941 13.3033 5.06941C12.4508 5.06941 11.7686 5.18298 11.7686 5.32519C11.7686 5.46587 11.5384 5.58097 11.2571 5.58097C10.9757 5.58097 10.7455 5.69608 10.7455 5.83676C10.7455 5.97744 10.5677 6.09254 10.3503 6.09254C9.8385 6.09254 8.69924 7.2318 8.69924 7.74363C8.69924 7.96104 8.58413 8.13881 8.44345 8.13881C8.30277 8.13881 8.18767 8.36902 8.18767 8.65038C8.18767 8.93174 8.07257 9.16195 7.93188 9.16195C7.78967 9.16195 7.6761 9.84413 7.6761 10.6967C7.6761 11.5492 7.78967 12.2314 7.93188 12.2314C8.07257 12.2314 8.18767 12.4616 8.18767 12.7429C8.18767 13.0243 8.30277 13.2545 8.44345 13.2545C8.58413 13.2545 8.69924 13.4323 8.69924 13.6497C8.69924 14.1615 9.8385 15.3008 10.3503 15.3008C10.5677 15.3008 10.7455 15.4159 10.7455 15.5565C10.7455 16.0297 11.5308 15.8177 12.1789 15.1695C12.7478 14.6007 12.778 14.483 12.4414 14.1464C12.2321 13.9372 11.9339 13.7661 11.7784 13.7661C11.6228 13.7661 11.0967 13.367 10.6092 12.8793C9.83108 12.1012 9.72237 11.8341 9.72237 10.6984C9.72237 9.50675 9.81292 9.31363 10.8667 8.26006C11.9198 7.20674 12.1137 7.11568 13.3033 7.11568C14.493 7.11568 14.6869 7.20674 15.7399 8.26006L16.8843 9.40418V12.0968C16.8843 13.5775 16.9501 14.7892 17.0304 14.7892C17.3307 14.7892 17.9075 14.0441 17.9075 13.6563C17.9075 13.4353 18.0226 13.2545 18.1632 13.2545C18.3039 13.2545 18.419 13.0243 18.419 12.7429C18.419 12.4616 18.5341 12.2314 18.6748 12.2314C18.817 12.2314 18.9306 11.5492 18.9306 10.6967C18.9306 9.84413 18.817 9.16195 18.6748 9.16195C18.5341 9.16195 18.419 8.93174 18.419 8.65038C18.419 8.36902 18.3039 8.13881 18.1632 8.13881C17.6315 8.13881 17.9399 7.32184 18.7943 6.46778C19.2818 5.98 19.7422 5.58097 19.8174 5.58097C19.8923 5.58097 19.9537 6.15649 19.9537 6.85989V8.13881H20.9769H22V5.06941V2H18.9306H15.8612V3.02314ZM11.3075 9.31005C10.7869 9.86536 10.7624 9.98276 11.0972 10.3176C11.3057 10.526 11.6034 10.6967 11.7589 10.6967C11.9144 10.6967 12.4406 11.0957 12.9281 11.5835C13.7062 12.3616 13.8149 12.6286 13.8149 13.7643C13.8149 14.956 13.7244 15.1491 12.6705 16.2027C11.6175 17.256 11.4236 17.347 10.2339 17.347C9.04429 17.347 8.8504 17.256 7.79734 16.2027L6.65297 15.0585V12.3659C6.65297 10.8852 6.58723 9.67352 6.50691 9.67352C6.20662 9.67352 5.62983 10.4186 5.62983 10.8064C5.62983 11.0274 5.51473 11.2082 5.37405 11.2082C5.23336 11.2082 5.11826 11.4384 5.11826 11.7198C5.11826 12.0012 5.00316 12.2314 4.86248 12.2314C4.72026 12.2314 4.60669 12.9135 4.60669 13.7661C4.60669 14.6186 4.72026 15.3008 4.86248 15.3008C5.00316 15.3008 5.11826 15.531 5.11826 15.8123C5.11826 16.0937 5.23336 16.3239 5.37405 16.3239C5.75388 16.3239 5.68354 17.0741 5.26431 17.4931C4.75812 17.9995 4.27392 17.9499 3.83934 17.347C3.40477 16.7442 2.92057 16.6945 2.41437 17.201C1.90792 17.7072 1.95754 18.1914 2.56042 18.626C3.21702 19.0992 3.20909 19.5979 2.53612 20.1819L2 20.6466L2.6768 21.3232L3.35335 22L3.81811 21.4639C4.40539 20.7868 4.808 20.7868 5.39528 21.4639L5.86003 22L6.53658 21.3232L7.21339 20.6466L6.67726 20.1819C6.04906 19.6368 6.00225 19.2401 6.50691 18.7357C6.92589 18.3165 7.6761 18.2461 7.6761 18.626C7.6761 18.7666 7.90631 18.8817 8.18767 18.8817C8.46903 18.8817 8.69924 18.9968 8.69924 19.1375C8.69924 19.2797 9.38141 19.3933 10.2339 19.3933C11.0865 19.3933 11.7686 19.2797 11.7686 19.1375C11.7686 18.9968 11.9988 18.8817 12.2802 18.8817C12.5616 18.8817 12.7918 18.7666 12.7918 18.626C12.7918 18.4853 12.9695 18.3702 13.187 18.3702C13.6988 18.3702 14.8381 17.2309 14.8381 16.7191C14.8381 16.5017 14.9532 16.3239 15.0938 16.3239C15.2345 16.3239 15.3496 16.0937 15.3496 15.8123C15.3496 15.531 15.4647 15.3008 15.6054 15.3008C15.7476 15.3008 15.8612 14.6186 15.8612 13.7661C15.8612 12.9135 15.7476 12.2314 15.6054 12.2314C15.4647 12.2314 15.3496 12.0012 15.3496 11.7198C15.3496 11.4384 15.2345 11.2082 15.0938 11.2082C14.9532 11.2082 14.8381 11.0305 14.8381 10.813C14.8381 10.5956 14.5554 10.1352 14.2101 9.7899C13.8648 9.44459 13.4044 9.16195 13.187 9.16195C12.9695 9.16195 12.7918 9.04685 12.7918 8.90617C12.7918 8.43373 11.9019 8.6757 11.3075 9.31005Z" fill="#808080"/>
</svg>
