<svg width="24" height="24" viewBox="0 0 24 24" fill="none" xmlns="http://www.w3.org/2000/svg">
<path fill-rule="evenodd" clip-rule="evenodd" d="M11 2.25C11 2.3875 11.176 2.5 11.3912 2.5C11.6065 2.5 12.3568 3.0895 13.0588 3.81025C13.8077 4.57925 14.3775 4.99225 14.4382 4.81025C14.4952 4.6395 14.7572 4.5 15.0208 4.5C15.2845 4.5 15.5 4.3875 15.5 4.25C15.5 4.1125 15.725 4 16 4C16.3333 4 16.5 3.83325 16.5 3.5C16.5 3.16675 16.3333 3 16 3C15.725 3 15.5 2.8875 15.5 2.75C15.5 2.6125 15.1625 2.5 14.75 2.5C14.3375 2.5 14 2.3875 14 2.25C14 2.111 13.3333 2 12.5 2C11.6667 2 11 2.111 11 2.25ZM6.8125 3.374C6.64075 3.56925 6.5 3.9025 6.5 4.1145C6.5 4.3265 6.3875 4.5 6.25 4.5C6.10725 4.5 6 5.25 6 6.25C6 7.25 6.10725 8 6.25 8C6.3875 8 6.5 8.225 6.5 8.5C6.5 8.83325 6.66675 9 7 9C7.275 9 7.5 8.8875 7.5 8.75C7.5 8.6125 7.725 8.5 8 8.5C8.275 8.5 8.5 8.3875 8.5 8.25C8.5 8.1125 8.70025 8 8.94475 8C9.1895 8 9.55175 7.775 9.75 7.5C9.94825 7.225 10.3105 7 10.5553 7C10.7998 7 11 6.8875 11 6.75C11 6.6125 11.225 6.5 11.5 6.5C11.7825 6.5 12 6.33325 12 6.11675C12 5.619 10.381 4 9.88325 4C9.6725 4 9.5 3.8875 9.5 3.75C9.5 3.6125 9.275 3.5 9 3.5C8.725 3.5 8.5 3.3875 8.5 3.25C8.5 2.8715 7.16875 2.96925 6.8125 3.374ZM18.5 4.75C18.5 4.8875 18.2997 5 18.0553 5C17.8105 5 17.4482 5.225 17.25 5.5C17.0518 5.775 16.7378 6 16.552 6C16.3663 6 16.0413 6.173 15.8298 6.3845C15.4838 6.7305 15.4983 6.81475 15.9727 7.22625C16.2627 7.47775 16.5 7.8425 16.5 8.03675C16.5 8.23075 16.725 8.55175 17 8.75C17.275 8.94825 17.5 9.3105 17.5 9.55525C17.5 9.79975 17.6125 10 17.75 10C17.8875 10 18 10.1768 18 10.3927C18 10.8748 18.5942 11.5 19.052 11.5C19.2377 11.5 19.5518 11.275 19.75 11C19.9482 10.725 20.2623 10.5 20.448 10.5C21.0473 10.5 21.5 9.8085 21.5 8.89275C21.5 8.40175 21.3875 8 21.25 8C21.1125 8 21 7.79975 21 7.55525C21 7.3105 20.775 6.94825 20.5 6.75C20.225 6.55175 20 6.2405 20 6.0585C20 5.7395 18.9155 4.5 18.6362 4.5C18.5612 4.5 18.5 4.6125 18.5 4.75ZM3.3125 6.874C3.14075 7.06925 3 7.515 3 7.8645C3 8.214 2.8875 8.5 2.75 8.5C2.6125 8.5 2.5 8.8375 2.5 9.25C2.5 9.6625 2.3875 10 2.25 10C2.1125 10 2 10.45 2 11C2 11.55 2.1125 12 2.25 12C2.3875 12 2.5 11.8875 2.5 11.75C2.5 11.6125 2.67375 11.5 2.88625 11.5C3.60975 11.5 4.5 10.334 4.5 9.38625C4.5 8.89875 4.3875 8.5 4.25 8.5C4.1125 8.5 4 8.05 4 7.5C4 6.44625 3.82725 6.28925 3.3125 6.874ZM13.5 7.75C13.5 7.8875 13.275 8 13 8C12.725 8 12.5 8.1125 12.5 8.25C12.5 8.3875 12.2998 8.5 12.0553 8.5C11.8105 8.5 11.4482 8.725 11.25 9C11.0518 9.275 10.6895 9.5 10.4447 9.5C10.2002 9.5 10 9.6125 10 9.75C10 9.8875 9.775 10 9.5 10C9.225 10 9 10.1125 9 10.25C9 10.3875 8.82325 10.5 8.60725 10.5C8.391 10.5 8.0535 10.6608 7.85725 10.8573C7.45125 11.263 7.3705 12.5 7.75 12.5C7.8875 12.5 8 12.725 8 13C8 13.275 8.1125 13.5 8.25 13.5C8.3875 13.5 8.5 13.7002 8.5 13.9447C8.5 14.1895 8.725 14.5518 9 14.75C9.275 14.9482 9.5 15.2622 9.5 15.448C9.5 15.956 10.3087 16.699 10.4382 16.3102C10.4952 16.1395 10.7572 16 11.0208 16C11.2845 16 11.5 15.8875 11.5 15.75C11.5 15.6125 11.7002 15.5 11.9447 15.5C12.1895 15.5 12.5518 15.275 12.75 15C12.9482 14.725 13.3105 14.5 13.5553 14.5C13.7998 14.5 14 14.3875 14 14.25C14 14.1125 14.225 14 14.5 14C14.775 14 15 13.8875 15 13.75C15 13.6125 15.1768 13.5 15.3927 13.5C15.609 13.5 15.9465 13.3392 16.1427 13.1427C16.5487 12.737 16.6295 11.5 16.25 11.5C16.1125 11.5 16 11.275 16 11C16 10.725 15.8875 10.5 15.75 10.5C15.6125 10.5 15.5 10.2998 15.5 10.0553C15.5 9.8105 15.275 9.44825 15 9.25C14.725 9.05175 14.5 8.73775 14.5 8.552C14.5 8.2165 13.9163 7.5 13.6427 7.5C13.5642 7.5 13.5 7.6125 13.5 7.75ZM21.5 12.25C21.5 12.3875 21.3263 12.5 21.1138 12.5C20.3903 12.5 19.5 13.666 19.5 14.6138C19.5 15.1013 19.6125 15.5 19.75 15.5C19.8875 15.5 20 15.95 20 16.5C20 17.05 20.0642 17.5 20.1427 17.5C20.5087 17.5 21 16.722 21 16.1427C21 15.7892 21.1125 15.5 21.25 15.5C21.3875 15.5 21.5 15.1625 21.5 14.75C21.5 14.3375 21.6125 14 21.75 14C21.8875 14 22 13.55 22 13C22 12.45 21.8875 12 21.75 12C21.6125 12 21.5 12.1125 21.5 12.25ZM4.25 13C4.05175 13.275 3.73775 13.5 3.552 13.5C2.95275 13.5 2.5 14.1915 2.5 15.1073C2.5 15.5983 2.6125 16 2.75 16C2.8875 16 3 16.2002 3 16.4447C3 16.6895 3.225 17.0518 3.5 17.25C3.775 17.4482 4 17.7595 4 17.9415C4 18.4322 5.3155 19.6782 5.43975 19.3055C5.49575 19.1375 5.7325 19 5.96575 19C6.19875 19 6.55175 18.775 6.75 18.5C6.94825 18.225 7.26225 18 7.448 18C7.63375 18 7.95875 17.827 8.17025 17.6155C8.51625 17.2695 8.50175 17.1853 8.02725 16.7738C7.73725 16.5223 7.5 16.1575 7.5 15.9633C7.5 15.7692 7.275 15.4482 7 15.25C6.725 15.0518 6.5 14.6895 6.5 14.4447C6.5 14.2002 6.3875 14 6.25 14C6.1125 14 6 13.8232 6 13.6073C6 13.1252 5.40575 12.5 4.948 12.5C4.76225 12.5 4.44825 12.725 4.25 13ZM16.5 15.25C16.5 15.3875 16.275 15.5 16 15.5C15.725 15.5 15.5 15.6125 15.5 15.75C15.5 15.8875 15.2998 16 15.0553 16C14.8105 16 14.4482 16.225 14.25 16.5C14.0518 16.775 13.6895 17 13.4447 17C13.2002 17 13 17.1125 13 17.25C13 17.3875 12.775 17.5 12.5 17.5C12.2175 17.5 12 17.6667 12 17.8832C12 18.381 13.619 20 14.1167 20C14.3275 20 14.5 20.1125 14.5 20.25C14.5 20.3875 14.725 20.5 15 20.5C15.275 20.5 15.5 20.6125 15.5 20.75C15.5 20.8875 15.725 21 16 21C16.275 21 16.5 20.8875 16.5 20.75C16.5 20.6125 16.725 20.5 17 20.5C17.3333 20.5 17.5 20.3333 17.5 20C17.5 19.725 17.6125 19.5 17.75 19.5C17.8927 19.5 18 18.75 18 17.75C18 16.75 17.8927 16 17.75 16C17.6125 16 17.5 15.775 17.5 15.5C17.5 15.1667 17.3333 15 17 15C16.725 15 16.5 15.1125 16.5 15.25ZM9.5 19.25C9.5 19.3875 9.275 19.5 9 19.5C8.725 19.5 8.5 19.6125 8.5 19.75C8.5 19.8875 8.275 20 8 20C7.66675 20 7.5 20.1667 7.5 20.5C7.5 20.8333 7.66675 21 8 21C8.275 21 8.5 21.1125 8.5 21.25C8.5 21.3875 8.8375 21.5 9.25 21.5C9.6625 21.5 10 21.6125 10 21.75C10 21.889 10.6667 22 11.5 22C12.3333 22 13 21.889 13 21.75C13 21.6125 12.824 21.5 12.6088 21.5C12.3935 21.5 11.6698 20.9375 11 20.25C9.76175 18.9788 9.5 18.8043 9.5 19.25Z" fill="#808080"/>
</svg>
